<mxfile host="app.diagrams.net" modified="2024-02-28T19:08:49.237Z" agent="Mozilla/5.0 (Macintosh; Intel Mac OS X 10_15_7) AppleWebKit/537.36 (KHTML, like Gecko) Chrome/121.0.0.0 Safari/537.36" etag="yC95EeAua4Q2C2UHEo48" version="23.1.8" type="github">
  <diagram name="‫עמוד-1‬" id="cpIK9pteHgYOo36d4dvi">
    <mxGraphModel dx="1194" dy="1674" grid="1" gridSize="10" guides="1" tooltips="1" connect="1" arrows="1" fold="1" page="1" pageScale="1" pageWidth="827" pageHeight="1169" math="0" shadow="0">
      <root>
        <mxCell id="0" />
        <mxCell id="1" parent="0" />
        <mxCell id="jTDqIBiRyvQsyAoPuRJc-1" value="ff" style="verticalLabelPosition=bottom;verticalAlign=top;html=1;shape=card;whiteSpace=wrap;size=20;arcSize=12;" vertex="1" parent="1">
          <mxGeometry x="350" y="70" width="100" height="70" as="geometry" />
        </mxCell>
        <mxCell id="jTDqIBiRyvQsyAoPuRJc-3" value="" style="strokeWidth=2;html=1;shape=mxgraph.flowchart.document2;whiteSpace=wrap;size=0.25;" vertex="1" parent="1">
          <mxGeometry x="350" y="520" width="100" height="60" as="geometry" />
        </mxCell>
        <mxCell id="jTDqIBiRyvQsyAoPuRJc-5" value="" style="verticalLabelPosition=bottom;verticalAlign=top;html=1;shape=card;whiteSpace=wrap;size=20;arcSize=12;" vertex="1" parent="1">
          <mxGeometry x="350" y="160" width="100" height="60" as="geometry" />
        </mxCell>
        <mxCell id="jTDqIBiRyvQsyAoPuRJc-10" value="" style="ellipse;whiteSpace=wrap;html=1;" vertex="1" parent="1">
          <mxGeometry x="335" y="710" width="120" height="85" as="geometry" />
        </mxCell>
        <mxCell id="jTDqIBiRyvQsyAoPuRJc-15" value="" style="ellipse;whiteSpace=wrap;html=1;" vertex="1" parent="1">
          <mxGeometry x="340" y="-70" width="120" height="80" as="geometry" />
        </mxCell>
        <mxCell id="jTDqIBiRyvQsyAoPuRJc-18" value="" style="rounded=1;whiteSpace=wrap;html=1;" vertex="1" parent="1">
          <mxGeometry x="530" y="70" width="120" height="60" as="geometry" />
        </mxCell>
        <mxCell id="jTDqIBiRyvQsyAoPuRJc-19" value="NUMBER 1" style="text;html=1;align=center;verticalAlign=middle;whiteSpace=wrap;rounded=0;" vertex="1" parent="1">
          <mxGeometry x="550" y="85" width="60" height="30" as="geometry" />
        </mxCell>
        <mxCell id="jTDqIBiRyvQsyAoPuRJc-20" value="numbER 2" style="rounded=1;whiteSpace=wrap;html=1;" vertex="1" parent="1">
          <mxGeometry x="520" y="160" width="120" height="60" as="geometry" />
        </mxCell>
        <mxCell id="jTDqIBiRyvQsyAoPuRJc-25" value="" style="ellipse;whiteSpace=wrap;html=1;" vertex="1" parent="1">
          <mxGeometry x="335" y="370" width="120" height="80" as="geometry" />
        </mxCell>
      </root>
    </mxGraphModel>
  </diagram>
</mxfile>
